<svg width="303" height="135" viewBox="0 0 303 135" fill="none" xmlns="http://www.w3.org/2000/svg">
<path d="M0 0H303V111C303 124.255 292.255 135 279 135H24C10.7452 135 0 124.255 0 111V0Z" fill="#DBEADD"/>
<path d="M88.04 48.08H107.24V51.8H99.48V77H95.6V51.8H88.04V48.08ZM110.391 62.56C110.391 60.56 110.765 58.68 111.511 56.92C112.285 55.1333 113.351 53.56 114.711 52.2C116.071 50.8133 117.631 49.7333 119.391 48.96C121.178 48.16 123.098 47.76 125.151 47.76C127.178 47.76 129.071 48.16 130.831 48.96C132.618 49.7333 134.191 50.8133 135.551 52.2C136.938 53.56 138.018 55.1333 138.791 56.92C139.565 58.68 139.951 60.56 139.951 62.56C139.951 64.6133 139.565 66.5333 138.791 68.32C138.018 70.1067 136.938 71.68 135.551 73.04C134.191 74.3733 132.618 75.4267 130.831 76.2C129.071 76.9467 127.178 77.32 125.151 77.32C123.098 77.32 121.178 76.9467 119.391 76.2C117.631 75.4533 116.071 74.4133 114.711 73.08C113.351 71.7467 112.285 70.1867 111.511 68.4C110.765 66.6133 110.391 64.6667 110.391 62.56ZM114.391 62.6C114.391 64.12 114.671 65.5467 115.231 66.88C115.791 68.1867 116.565 69.3467 117.551 70.36C118.538 71.3733 119.685 72.1733 120.991 72.76C122.298 73.32 123.711 73.6 125.231 73.6C126.725 73.6 128.125 73.32 129.431 72.76C130.738 72.1733 131.871 71.3733 132.831 70.36C133.791 69.3467 134.551 68.1867 135.111 66.88C135.671 65.5467 135.951 64.1067 135.951 62.56C135.951 61.04 135.671 59.6133 135.111 58.28C134.551 56.92 133.778 55.7333 132.791 54.72C131.805 53.7067 130.658 52.92 129.351 52.36C128.045 51.7733 126.645 51.48 125.151 51.48C123.631 51.48 122.218 51.7733 120.911 52.36C119.605 52.9467 118.458 53.7467 117.471 54.76C116.485 55.7733 115.725 56.96 115.191 58.32C114.658 59.6533 114.391 61.08 114.391 62.6ZM144.448 66.76H151.928V70.04H144.448V66.76ZM158.637 77V48.08H166.517C169.37 48.08 171.797 48.52 173.797 49.4C175.823 50.28 177.45 51.44 178.677 52.88C179.903 54.32 180.797 55.92 181.357 57.68C181.943 59.4133 182.237 61.1467 182.237 62.88C182.237 65.0667 181.85 67.0267 181.077 68.76C180.33 70.4933 179.29 71.9733 177.957 73.2C176.623 74.4267 175.09 75.3733 173.357 76.04C171.65 76.68 169.837 77 167.917 77H158.637ZM162.517 73.28H167.157C168.757 73.28 170.223 73.04 171.557 72.56C172.917 72.08 174.09 71.3867 175.077 70.48C176.09 69.5733 176.877 68.4667 177.437 67.16C177.997 65.8267 178.277 64.32 178.277 62.64C178.277 60.8533 177.983 59.2933 177.397 57.96C176.81 56.6 176.01 55.4667 174.997 54.56C173.983 53.6533 172.837 52.9733 171.557 52.52C170.277 52.04 168.93 51.8 167.517 51.8H162.517V73.28ZM186.954 62.56C186.954 60.56 187.327 58.68 188.074 56.92C188.847 55.1333 189.914 53.56 191.274 52.2C192.634 50.8133 194.194 49.7333 195.954 48.96C197.74 48.16 199.66 47.76 201.714 47.76C203.74 47.76 205.634 48.16 207.394 48.96C209.18 49.7333 210.754 50.8133 212.114 52.2C213.5 53.56 214.58 55.1333 215.354 56.92C216.127 58.68 216.514 60.56 216.514 62.56C216.514 64.6133 216.127 66.5333 215.354 68.32C214.58 70.1067 213.5 71.68 212.114 73.04C210.754 74.3733 209.18 75.4267 207.394 76.2C205.634 76.9467 203.74 77.32 201.714 77.32C199.66 77.32 197.74 76.9467 195.954 76.2C194.194 75.4533 192.634 74.4133 191.274 73.08C189.914 71.7467 188.847 70.1867 188.074 68.4C187.327 66.6133 186.954 64.6667 186.954 62.56ZM190.954 62.6C190.954 64.12 191.234 65.5467 191.794 66.88C192.354 68.1867 193.127 69.3467 194.114 70.36C195.1 71.3733 196.247 72.1733 197.554 72.76C198.86 73.32 200.274 73.6 201.794 73.6C203.287 73.6 204.687 73.32 205.994 72.76C207.3 72.1733 208.434 71.3733 209.394 70.36C210.354 69.3467 211.114 68.1867 211.674 66.88C212.234 65.5467 212.514 64.1067 212.514 62.56C212.514 61.04 212.234 59.6133 211.674 58.28C211.114 56.92 210.34 55.7333 209.354 54.72C208.367 53.7067 207.22 52.92 205.914 52.36C204.607 51.7733 203.207 51.48 201.714 51.48C200.194 51.48 198.78 51.7733 197.474 52.36C196.167 52.9467 195.02 53.7467 194.034 54.76C193.047 55.7733 192.287 56.96 191.754 58.32C191.22 59.6533 190.954 61.08 190.954 62.6Z" fill="#0D5329"/>
<path d="M25 48.7778C25 41.7208 30.7208 36 37.7778 36H54.6035C55.284 36 55.9364 36.2714 56.4161 36.7541L70.257 50.6804C70.7329 51.1592 71 51.8068 71 52.4818V74.3333C71 81.3903 65.2792 87.1111 58.2222 87.1111H37.7778C30.7208 87.1111 25 81.3903 25 74.3333V48.7778Z" fill="#34574A" stroke="white" stroke-width="3.83333"/>
<path d="M35.2223 59L37.7778 59" stroke="white" stroke-width="3.83333" stroke-linecap="round"/>
<path d="M35.2223 64.1111L37.7778 64.1111" stroke="white" stroke-width="3.83333" stroke-linecap="round"/>
<path d="M35.2223 69.2222L37.7778 69.2222" stroke="white" stroke-width="3.83333" stroke-linecap="round"/>
<path d="M42.8889 64.1111H60.7778" stroke="white" stroke-width="3.83333" stroke-linecap="round"/>
<path d="M42.8889 59H60.7778" stroke="white" stroke-width="3.83333" stroke-linecap="round"/>
<path d="M42.8889 69.2222H60.7778" stroke="white" stroke-width="3.83333" stroke-linecap="round"/>
<path d="M55.6667 36.617C55.6667 36.3893 55.942 36.2753 56.103 36.4363L70.5638 50.8971C70.7248 51.0581 70.6108 51.3333 70.3831 51.3333H63.3334C59.0992 51.3333 55.6667 47.9008 55.6667 43.6667V36.617Z" fill="#34574A" stroke="white" stroke-width="3.83333"/>
</svg>
